ply
format ascii 1.0
comment VCGLIB generated
element vertex 502
property float x
property float y
property float z
element face 1000
property list uchar int vertex_indices
end_header
-20.0179 -2.47513 39.3824 
-24.9295 -6.64034 35.4936 
7.78586 10.6173 16.4545 
-16.6493 16.3992 39.8576 
-6.88934 7.37988 16.8274 
-17.6529 2.36918 28.8739 
-13.9948 -2.65983 39.9796 
-11.3952 -15.2305 15.3649 
-14.7515 1.76244 32.8074 
10.3545 -12.8059 -0.0311839 
15.3046 -13.2552 22.1028 
-21.4765 -15.3838 34.8668 
-17.1825 -2.44952 39.4732 
-2.61789 8.73473 4.7548 
-10.8909 2.9814 7.25133 
20.0434 1.15799 3.95442 
-14.2105 -15.1315 19.1198 
16.8097 5.21249 11.5047 
11.3252 7.27483 2.66846 
-7.3316 -14.18 -0.0311839 
14.786 -11.1577 1.31696 
22.2655 -9.391 9.58367 
-18.2792 13.4891 45.9427 
-1.3703 4.90853 42.1727 
-8.57194 -0.823607 37.0723 
1.48961 -17.8824 6.48918 
-13.3897 -12.5308 -0.0311839 
-15.4551 17.0603 44.883 
-0.812509 12.14 10.5499 
-16.534 3.22549 35.2833 
-23.9064 -3.04176 18.31 
-23.8141 -4.84131 16.6843 
-20.1216 10.7989 42.6423 
-13.1153 -11.2488 33.7095 
12.3753 2.3821 -0.0311839 
2.58416 -0.035652 30.2406 
14.4783 4.46609 23.0871 
-24.5491 -7.05095 25.6906 
20.2648 -8.92706 12.3523 
-12.4841 -13.0688 10.6359 
0.609681 7.91191 0.0469572 
24.3438 -3.50268 4.59747 
-5.41539 -16.549 0.599262 
-6.30688 8.78532 -0.0311839 
-22.5241 -16.0419 26.2643 
11.2538 -14.7291 0.92108 
-3.53797 9.28427 8.44522 
-12.2577 -14.7471 13.2183 
-20.825 2.06993 14.9195 
-25.3946 -4.97076 26.8714 
-18.0602 -8.13103 39.6449 
-4.86424 7.47738 19.8678 
-6.47404 0.0693573 44.5227 
18.1218 -11.4097 6.63379 
19.032 -11.2719 14.7623 
-3.28158 -9.61878 27.9307 
-23.5621 -13.5066 34.2731 
18.1471 -4.25216 24.3983 
-18.2925 -2.79652 8.98024 
-4.33274 5.18151 44.7892 
-15.259 -13.4914 25.7337 
-15.0934 -14.7062 30.1185 
-10.4057 6.97563 18.5843 
-20.2732 -13.4782 24.1466 
-4.93306 1.28818 43.3538 
-23.5027 -3.28123 24.7633 
4.98638 -14.2538 -0.0311839 
-24.5007 -2.32491 27.3396 
6.58089 11.2315 13.0191 
-4.36643 -16.3031 3.03445 
-13.4137 -1.87699 5.53523 
-10.5563 -2.08838 32.8199 
21.0808 -5.07219 13.9804 
-2.52292 -17.7037 13.7887 
-7.66954 6.13335 13.7564 
0.454551 8.48397 20.3835 
12.098 -15.9575 6.28464 
-21.3951 0.906275 31.9164 
4.62864 -18.9872 8.4029 
-15.6994 2.89549 27.1113 
2.99992 -19.6905 14.2425 
-14.1225 -4.20992 -0.0311839 
-18.5282 11.2933 37.6786 
17.1136 -7.12411 0.262329 
-19.4854 11.5232 45.059 
-0.192688 -16.8954 19.8571 
0.761188 4.12279 42.3032 
-3.833 2.31346 28.031 
19.5172 -0.316598 1.91526 
12.0173 -17.1622 11.2766 
20.9482 -7.96384 2.37045 
-14.2017 -7.93695 39.3946 
-7.44671 4.39288 -0.0311839 
-12.4975 -4.27749 4.81408 
20.057 0.496674 9.42315 
-8.85105 2.2515 39.4933 
22.6164 -4.68207 12.0837 
-22.3445 -9.72831 15.8437 
-10.718 -3.81886 36.9561 
-1.49158 11.7856 17.1034 
-15.7915 19.2588 46.1726 
3.70247 -15.802 21.3237 
-8.70862 2.70634 28.7277 
-16.099 -13.4434 23.9027 
17.2453 -11.1093 22.3707 
24.4149 -0.968367 8.04566 
10.2927 6.10801 22.7981 
12.2917 -14.8928 22.1473 
-15.8489 18.6079 42.729 
-19.475 -13.3971 16.9875 
6.28817 -19.3605 11.2005 
-16.337 11.5665 38.3467 
-9.00417 -14.2932 11.4285 
9.99129 -18.179 16.1257 
-1.99236 -13.8782 23.9497 
-2.55925 -2.29927 29.6042 
0.636375 6.10681 24.7136 
19.1313 -9.30859 20.3988 
19.8132 -10.0171 9.89238 
-17.6598 -15.3297 34.7473 
-14.7993 0.505911 2.59403 
-20.7449 -17.407 27.6363 
-21.6112 -5.46082 39.1785 
-18.1234 -14.1827 18.7661 
-11.9562 3.31368 27.9803 
-18.4934 2.66943 12.1929 
-8.64341 -13.6783 4.47439 
11.411 -5.97912 30.3184 
7.99954 -10.5803 29.7131 
6.07003 1.82732 29.7466 
15.2058 2.6258 24.9684 
-22.0496 1.28117 17.3955 
24.1361 -6.57397 11.3807 
-8.39727 -14.7728 16.7421 
-0.352653 5.4174 46.5203 
-19.3141 6.61101 37.5381 
10.7399 -8.91493 29.9401 
-0.504653 -5.34579 30.2711 
-11.8949 -11.7435 30.164 
-23.6282 -3.61547 22.0487 
-1.38785 -17.7574 18.257 
-3.66723 -16.2342 16.3392 
9.55074 -13.555 25.228 
-19.4446 -6.59205 10.1336 
-12.6697 0.118056 37.19 
1.52818 -2.80298 -0.0311839 
14.0616 -13.4525 3.35688 
2.29674 12.2855 14.7684 
18.157 -7.86567 23.6358 
24.062 -9.21111 7.98365 
-5.90329 -15.0979 19.0121 
21.5728 -7.21967 11.639 
-11.9802 -9.06739 4.90316 
-18.8432 -17.7993 26.7961 
-12.0972 -5.78006 6.08789 
-6.46861 -12.4354 24.8994 
20.139 -3.3556 20.4132 
18.3731 -1.83447 0.61714 
-12.4469 6.7132 19.8502 
-2.63066 -17.8574 16.3945 
-11.2742 -11.1598 5.76227 
-3.63116 11.3252 13.3036 
-0.568913 6.90439 44.7629 
-5.67912 -4.27199 29.9757 
-10.1753 -12.8856 7.79918 
-18.4037 16.9359 47.1309 
-15.3082 8.02034 40.9908 
-23.6223 -15.6217 31.2699 
-9.32661 -11.3069 26.4228 
17.1031 0.990101 2.11268 
-10.6502 -3.16628 40.7472 
-14.1165 -2.00647 3.87141 
-16.6651 -16.8834 27.0404 
9.76388 -17.3658 19.0531 
-11.9648 -1.94509 41.6485 
-20.7191 0.785384 25.2769 
-22.6479 -1.73261 35.2435 
-13.7027 1.946 30.1315 
-9.62364 0.719975 43.9649 
-0.252543 -9.69945 29.0544 
-2.77074 9.22 0.601806 
-4.42435 6.4527 6.68314 
-21.5005 -11.2867 20.0944 
-9.85263 -14.4304 0.294636 
-17.3155 -9.05276 9.51817 
-15.3523 -12.9936 35.2434 
-15.9543 4.1049 40.2471 
-16.3773 5.30701 19.7264 
17.9495 -12.5743 10.5082 
11.857 1.63423 28.3853 
13.7366 -15.6946 19.1632 
-24.4065 -6.81356 37.5342 
3.52887 -18.1313 5.67615 
-14.3624 -14.2215 27.8469 
-10.9946 -15.2218 1.75193 
-2.00532 -16.9958 3.41786 
-13.8389 -3.85527 6.88914 
2.70498 11.808 10.8805 
-0.499697 -17.5725 8.74973 
-5.06929 5.57822 4.629 
-6.93679 -11.9599 -0.0311839 
7.29497 -14.8957 23.0475 
-6.60777 4.81636 9.79885 
-2.31006 -15.8433 -0.0311854 
-4.2689 3.23688 47.0527 
9.6341 10.0678 13.3702 
13.8396 4.03133 2.56408 
22.0514 -3.55237 2.40813 
16.9014 4.11632 7.20755 
-17.7881 8.68809 44.0399 
4.41879 5.32353 -0.0311839 
1.21457 7.45671 44.3152 
-5.95171 7.40555 13.8756 
12.2443 -12.4611 26.0095 
10.1708 9.4692 8.51811 
22.6256 -9.64868 5.06952 
15.7168 0.100741 0.628561 
-12.9939 -9.95499 3.39001 
5.75212 -16.3098 2.5776 
-0.628891 -16.2426 4.97755 
-24.1735 -10.3488 35.8678 
-22.1794 -2.50535 38.2647 
-16.9648 -12.7401 12.0223 
-15.6248 -0.443505 -0.0311839 
-23.0297 -8.6178 21.9397 
-10.5209 -8.96857 31.2703 
-4.10702 10.4557 16.2093 
-17.194 -16.5293 31.1789 
-7.91836 -1.52391 30.3999 
13.2756 -10.2022 -0.0311839 
-18.8977 14.2129 43.2016 
-4.74284 1.37969 46.7087 
-20.8726 1.51386 28.7762 
-17.7143 -1.42392 0.474551 
1.81237 -17.0081 3.86496 
-11.862 -7.17791 35.969 
-17.6228 4.63082 13.7512 
-17.6073 0.395202 39.8602 
-17.6922 17.129 43.7504 
25.4148 -6.07804 6.96441 
-16.5238 7.12604 42.6665 
-16.3461 -5.09382 0.303757 
2.20926 -18.4724 19.2102 
-15.9962 -10.0756 0.436732 
-12.1875 -15.8088 -0.0311839 
-19.9663 -12.4207 15.0766 
17.2411 -13.6403 13.9092 
-25.307 -4.88167 30.5931 
-15.8032 -4.00903 2.03195 
20.9956 -10.7964 5.9627 
-6.83711 -10.106 27.6946 
-17.57 -13.7151 21.6081 
-3.46282 -14.3614 10.9811 
-15.2045 -15.3143 16.7165 
7.87273 8.28568 2.65704 
-18.2123 13.9723 39.419 
-19.8075 2.66402 22.4366 
-22.5806 -6.48447 14.275 
-22.6331 -1.99313 14.4464 
-24.361 -2.43307 31.2922 
-6.68712 -14.2144 10.2601 
-15.2907 12.6079 41.9406 
12.4924 6.97673 19.8685 
1.99898 -12.578 27.5754 
-12.0336 0.12639 33.0028 
-16.6527 8.47379 36.9636 
-13.3081 -15.0839 2.01416 
-11.3183 -13.7179 3.56481 
6.85068 7.65824 0.344216 
-9.02828 -1.16881 43.519 
-20.0473 -10.1747 38.9533 
-5.15555 4.08943 6.31888 
-14.9107 6.12237 16.3172 
-8.02025 3.46644 6.66771 
20.8553 -2.54067 16.5434 
11.1522 3.75007 26.8601 
-24.5968 -12.8959 31.8506 
-24.6903 -8.28807 33.2504 
-1.28403 -19.1163 15.013 
-14.7595 5.02064 12.2754 
1.29952 4.76385 26.4787 
22.8981 -0.508473 9.44036 
13.9796 -8.56238 28.332 
-20.2638 -12.1873 21.6654 
1.86018 -14.6183 23.9448 
2.49761 2.73713 28.6518 
-20.0176 14.2975 45.6768 
-21.0828 0.319534 12.9166 
-18.4943 2.1365 32.1854 
1.40151 -17.2561 0.654049 
-9.12331 -8.69113 28.8426 
-15.138 -10.8556 2.4259 
24.0876 -7.74234 5.0858 
-22.6903 -10.0394 37.9054 
3.48528 11.5067 17.5809 
0.408881 -17.347 2.64587 
-8.53024 -14.186 21.8588 
-5.14417 7.12899 10.4364 
15.5885 -6.77548 27.3462 
-20.8004 -12.9459 37.3398 
-15.4492 -13.7465 0.682394 
-20.7252 -9.84547 12.958 
-10.3976 3.50054 0.720093 
9.53373 -3.39889 31.0644 
7.16627 -7.17691 31.1634 
-22.1398 0.694272 21.3561 
-19.983 -17.1891 32.7281 
-24.4375 -4.81986 33.5323 
-17.0361 -11.0968 38.9048 
14.8974 2.17838 2.49121 
-19.3108 4.1869 18.2214 
-10.7723 0.35372 30.8438 
7.7614 -0.765252 30.8526 
-20.8553 -5.42445 11.3507 
-5.25082 6.78377 22.4717 
5.9871 6.6145 23.4799 
-10.932 -15.2065 18.355 
-22.5116 -9.23066 24.0272 
-12.7866 -8.78713 38.1342 
-11.8797 2.06372 -0.0311839 
-12.7821 -13.8957 22.7575 
-3.40262 4.75366 47.7156 
2.30585 -3.20984 30.8809 
-6.65183 -0.965577 41.4197 
16.5489 -2.7051 -0.0311839 
23.1814 -1.29066 4.20322 
-7.2812 3.66393 4.19164 
-4.42913 7.78441 3.59895 
-7.36141 1.25641 29.5124 
-22.468 -16.9771 29.2613 
1.55471 10.7171 5.96416 
-1.9409 -15.2991 7.50181 
-3.53759 6.87841 -0.0311839 
-13.9386 -7.86964 7.64959 
12.4295 -10.7836 27.9603 
-13.3733 -12.8109 25.1298 
6.15775 -3.74437 31.3728 
-2.50908 -16.0437 11.2009 
25.1003 -3.08054 10.3072 
8.48504 -18.1833 6.96934 
20.1513 -4.72954 1.16021 
-12.9695 3.17055 -0.0311839 
-18.6352 4.04522 35.973 
-4.3991 -0.536335 29.265 
-11.1872 -1.40926 35.1884 
10.2262 -0.187233 29.9926 
-19.8812 2.49144 39.9749 
-11.7424 -6.92166 3.68065 
-11.2618 -11.3844 27.5392 
-18.8985 -18.0532 29.3158 
-15.7761 -5.12039 39.6499 
15.7397 6.46308 14.9344 
-23.1059 -0.0978533 30.5689 
5.57142 10.3123 6.67414 
-4.44377 -13.4386 8.48195 
-19.0674 10.07 40.3203 
-24.8562 -14.6388 27.8749 
-19.9859 5.2847 39.7452 
13.7666 6.37245 4.3464 
-15.2118 1.74427 36.8666 
-13.3435 -0.923514 40.3546 
-23.9538 -4.14324 37.1164 
-3.11462 8.87564 2.73486 
-5.13765 -13.3717 5.01336 
-18.568 4.67024 42.1583 
-15.4076 1.71392 0.726325 
20.1832 -8.6048 16.9277 
-23.2011 -1.22755 20.7637 
-22.8397 -9.7683 18.5412 
-8.33741 -2.35992 39.0049 
-25.2641 -11.0721 27.5363 
-2.78601 -15.3505 20.1168 
2.52928 -7.84877 30.6786 
-4.94414 9.52979 13.3235 
-14.9979 -12.0838 37.7651 
1.39736 7.89637 47.1319 
14.6136 -5.94352 -0.0311839 
-24.1186 -10.79 25.7497 
-15.6652 14.9384 40.7649 
-2.57461 1.05678 40.7711 
12.1952 -13.3326 -0.0311839 
-20.297 0.999629 37.7975 
-0.503949 7.01202 49.1145 
10.1105 -15.4254 2.97613 
22.9573 -5.93582 3.09992 
-2.03052 11.0188 9.11675 
-5.47832 -14.7212 14.994 
-11.8412 0.817913 40.0301 
-10.6537 5.47673 12.2505 
6.25353 -18.9364 18.0987 
6.31702 -17.3923 20.2646 
-4.86374 3.53378 40.5973 
-23.98 -7.12084 19.5715 
1.131 5.69285 44.0269 
17.1599 -10.7814 3.11206 
15.3349 5.81504 19.1744 
-19.7874 2.98087 37.2626 
-1.29505 7.13494 46.8738 
-6.94253 -14.4981 2.41849 
-7.04299 3.80833 42.2976 
15.3956 -14.6898 10.7861 
-17.9569 -15.9763 25.2899 
7.30901 -17.5152 4.45027 
21.7503 -2.75911 11.9881 
-7.61366 4.65193 26.1499 
20.3883 -6.00155 19.0061 
7.15904 -15.7969 0.281904 
14.7742 -15.7482 15.1283 
-12.8221 -5.10796 39.2402 
-3.0778 -14.5047 4.94494 
9.12253 -18.7068 12.4568 
-14.6473 -12.6289 33.1576 
-15.9943 2.48644 10.2561 
-5.27741 8.32715 16.436 
4.66497 -10.4204 29.8867 
-9.4045 1.01234 37.7581 
-22.435 -0.0616125 26.7037 
-13.5719 -12.6987 3.41298 
-13.0795 -5.93913 2.46429 
2.06155 -19.443 16.7939 
5.66798 7.78471 20.9451 
21.6422 0.895403 6.2189 
25.6047 -6.4479 9.35334 
-2.78161 -18.2881 0.77893 
-15.7856 -1.70647 2.78799 
-25.5953 -8.7937 29.564 
-20.1801 -15.9081 25.2093 
12.7533 -3.77014 29.6405 
-6.59592 2.406 46.0202 
-5.22379 1.37664 38.9727 
-2.26651 2.59004 43.0682 
-7.77316 5.93515 2.6284 
-15.4644 6.28151 37.7761 
-16.4367 12.689 44.4091 
-1.62501 4.48599 48.5895 
-23.6531 -13.3466 25.2509 
7.84516 9.41994 19.0321 
-13.7337 -7.39078 0.273482 
-17.5968 6.10206 36.2378 
-12.6955 0.906816 5.34717 
10.0475 6.10546 -0.0311839 
18.5619 -1.62049 23.4241 
-16.0193 -14.3645 14.157 
-10.9166 0.0190813 -0.0311839 
16.4574 -13.3344 7.31126 
-23.461 -5.92469 23.4347 
1.82746 10.3669 19.338 
-6.86309 -7.25989 29.485 
-10.7571 -4.47389 34.1648 
-11.9929 -8.16628 -0.0311839 
18.9004 -9.77047 2.392 
-2.70138 -6.71583 29.4364 
14.2383 7.3691 8.79394 
17.475 -12.8099 19.0234 
-15.8915 -0.984445 8.17332 
18.4905 1.07706 21.8444 
-4.91884 9.35312 1.15515 
-14.9829 -0.176321 38.4544 
-0.202926 9.28388 2.79432 
7.73162 3.35472 28.4899 
12.5247 -1.83319 -0.0311839 
5.79375 -19.4683 15.4863 
14.3699 0.172331 27.5737 
-10.6624 2.8082 3.32051 
-8.67393 6.96378 0.58774 
15.7077 -2.03713 27.2423 
-18.9457 0.143729 10.5781 
12.3824 8.45551 15.8432 
-3.09593 9.2027 18.5895 
25.6548 -3.8144 7.92448 
12.8919 8.54757 11.3353 
-16.2388 -5.46066 7.82199 
-6.69057 -13.5208 6.22435 
-8.86047 2.59929 42.6223 
-13.0285 5.37106 23.8966 
-19.9392 8.3617 42.9493 
15.4753 -10.6323 25.6991 
0.931175 -18.8736 11.2308 
-17.3888 3.27558 24.7536 
8.00897 5.22161 26.3318 
-10.1718 6.78468 15.89 
-14.6685 -11.8992 10.0896 
-12.0495 -10.2191 7.72788 
20.0233 0.525869 17.7753 
-2.05197 12.2649 14.5197 
9.9402 8.9671 5.36611 
-13.7702 -0.0478931 7.59774 
7.23501 -12.669 27.6397 
2.83828 8.93269 2.50334 
17.0377 3.27902 21.6779 
-19.0878 -14.5321 36.4693 
-12.0724 3.74732 9.95057 
16.5835 -14.2086 16.8658 
18.0199 3.99891 17.8588 
20.6657 -0.899189 12.9694 
-18.9835 1.90685 34.6892 
-9.49418 -5.53704 31.4687 
-2.05987 -11.6124 26.9093 
19.2575 2.20599 12.6072 
17.488 1.97627 5.24617 
-20.2831 -2.42742 10.8689 
16.5219 0.779485 25.32 
3 286 22 165 
3 170 98 369 
3 357 135 396 
3 429 379 369 
3 100 27 108 
3 369 24 429 
3 95 391 429 
3 457 6 360 
3 360 387 144 
3 357 396 346 
3 174 269 178 
3 0 381 221 
3 293 191 220 
3 33 235 318 
3 396 135 342 
3 308 374 91 
3 144 457 360 
3 475 364 209 
3 438 342 135 
3 167 306 11 
3 361 221 176 
3 349 121 153 
3 44 63 426 
3 359 432 186 
3 122 221 361 
3 265 438 135 
3 247 277 307 
3 343 328 228 
3 115 87 343 
3 35 129 285 
3 115 451 137 
3 65 416 175 
3 121 329 44 
3 193 172 60 
3 102 177 311 
3 479 459 275 
3 459 129 345 
3 193 335 348 
3 101 390 201 
3 259 247 307 
3 427 303 127 
3 8 288 29 
3 5 478 175 
3 487 142 213 
3 315 420 75 
3 139 65 367 
3 179 55 497 
3 168 296 155 
3 368 245 182 
3 97 245 368 
3 442 245 222 
3 104 476 10 
3 148 156 57 
3 436 2 294 
3 158 314 62 
3 158 272 187 
3 109 245 442 
3 4 51 413 
3 296 150 371 
3 395 467 262 
3 48 236 125 
3 10 190 492 
3 226 161 373 
3 412 454 466 
3 471 333 184 
3 10 453 104 
3 480 272 62 
3 500 466 58 
3 80 461 419 
3 89 113 410 
3 373 212 413 
3 287 48 125 
3 466 454 58 
3 76 444 400 
3 260 386 112 
3 161 46 373 
3 354 331 252 
3 292 149 215 
3 385 46 161 
3 279 491 412 
3 78 25 192 
3 46 181 297 
3 93 347 154 
3 418 248 241 
3 164 160 126 
3 325 105 469 
3 120 171 439 
3 325 15 421 
3 385 458 13 
3 300 417 291 
3 463 120 439 
3 70 439 171 
3 219 198 331 
3 463 365 120 
3 258 287 500 
3 404 124 102 
3 442 47 7 
3 284 263 114 
3 213 10 476 
3 285 459 280 
3 76 339 402 
3 304 414 128 
3 414 487 128 
3 136 127 304 
3 179 497 263 
3 179 372 137 
3 458 40 180 
3 194 126 267 
3 324 216 157 
3 243 300 291 
3 217 291 417 
3 418 347 93 
3 120 233 424 
3 302 463 431 
3 456 464 431 
3 362 456 327 
3 458 362 13 
3 300 244 266 
3 431 464 302 
3 169 15 88 
3 88 325 207 
3 216 169 88 
3 365 463 341 
3 90 450 83 
3 234 289 218 
3 472 126 363 
3 423 69 42 
3 398 409 363 
3 363 126 398 
3 300 266 417 
3 152 160 482 
3 217 243 291 
3 424 248 171 
3 180 456 362 
3 254 485 18 
3 452 17 358 
3 358 206 18 
3 464 456 43 
3 216 206 309 
3 488 40 458 
3 450 20 83 
3 157 88 207 
3 394 20 450 
3 76 383 146 
3 219 25 198 
3 69 423 195 
3 266 267 417 
3 217 160 152 
3 217 437 243 
3 486 14 439 
3 439 14 463 
3 380 146 45 
3 488 268 40 
3 268 488 254 
3 169 216 309 
3 15 499 421 
3 41 469 239 
3 325 41 207 
3 83 324 340 
3 78 192 402 
3 34 206 216 
3 409 195 219 
3 126 194 183 
3 267 266 194 
3 217 417 160 
3 217 152 347 
3 418 93 248 
3 152 482 333 
3 171 248 93 
3 424 171 120 
3 120 365 233 
3 273 14 388 
3 34 440 206 
3 13 181 46 
3 458 180 362 
3 485 214 18 
3 90 340 384 
3 90 83 340 
3 21 118 53 
3 383 406 45 
3 219 195 295 
3 398 69 409 
3 164 126 472 
3 164 260 112 
3 472 354 260 
3 472 260 164 
3 347 418 217 
3 271 326 273 
3 13 327 181 
3 330 385 28 
3 488 458 330 
3 18 214 452 
3 499 94 421 
3 90 384 292 
3 450 215 249 
3 192 234 218 
3 234 295 289 
3 69 195 409 
3 347 152 154 
3 491 14 486 
3 463 326 431 
3 327 456 431 
3 362 327 13 
3 330 458 385 
3 353 254 488 
3 353 488 330 
3 281 105 421 
3 169 309 499 
3 169 499 15 
3 384 340 207 
3 146 53 444 
3 394 450 249 
3 354 409 331 
3 417 267 160 
3 196 70 93 
3 70 171 93 
3 14 273 463 
3 485 254 353 
3 208 358 17 
3 452 358 18 
3 94 499 208 
3 281 421 94 
3 88 15 325 
3 325 469 41 
3 384 207 41 
3 149 239 422 
3 394 53 146 
3 146 20 394 
3 444 76 146 
3 192 218 402 
3 76 402 383 
3 78 477 25 
3 42 69 398 
3 160 267 126 
3 164 482 160 
3 472 363 354 
3 217 418 437 
3 388 14 491 
3 431 326 199 
3 199 181 327 
3 202 181 271 
3 46 385 13 
3 28 197 330 
3 205 214 68 
3 358 208 206 
3 470 452 214 
3 499 206 208 
3 208 498 94 
3 105 281 338 
3 384 41 239 
3 338 422 469 
3 292 384 239 
3 149 249 215 
3 444 188 400 
3 219 234 25 
3 252 337 386 
3 481 482 39 
3 112 39 164 
3 271 199 326 
3 202 297 181 
3 297 212 373 
3 205 470 214 
3 467 452 470 
3 498 208 17 
3 105 325 421 
3 469 105 338 
3 215 90 292 
3 215 450 90 
3 118 38 54 
3 78 402 339 
3 25 234 192 
3 409 219 331 
3 198 25 477 
3 260 354 252 
3 196 93 154 
3 486 439 70 
3 486 196 454 
3 491 486 412 
3 373 46 297 
3 197 28 147 
3 197 353 330 
3 68 214 197 
3 485 353 214 
3 205 467 470 
3 351 493 17 
3 281 94 403 
3 338 132 422 
3 149 21 249 
3 188 118 54 
3 246 188 54 
3 118 188 53 
3 400 89 76 
3 113 389 461 
3 278 80 419 
3 337 252 331 
3 337 141 386 
3 333 471 196 
3 482 481 333 
3 154 333 196 
3 154 152 333 
3 486 70 196 
3 236 279 125 
3 202 271 273 
3 74 297 202 
3 326 463 273 
3 181 199 271 
3 4 74 480 
3 17 452 351 
3 494 94 498 
3 94 494 403 
3 281 403 338 
3 469 422 239 
3 110 339 410 
3 89 410 339 
3 110 78 339 
3 80 278 477 
3 337 331 198 
3 47 112 7 
3 39 112 47 
3 196 471 454 
3 471 58 454 
3 466 125 412 
3 48 310 236 
3 273 388 202 
3 491 279 388 
3 446 75 420 
3 452 467 351 
3 405 72 274 
3 149 422 132 
3 149 292 239 
3 53 188 444 
3 252 386 260 
3 442 7 253 
3 301 184 222 
3 39 222 481 
3 226 373 413 
3 297 74 212 
3 147 28 484 
3 197 214 353 
3 395 351 467 
3 493 483 498 
3 483 441 156 
3 494 72 403 
3 483 494 498 
3 72 96 403 
3 132 21 149 
3 338 96 132 
3 118 151 38 
3 38 151 72 
3 151 96 72 
3 400 188 246 
3 222 39 442 
3 333 481 184 
3 442 39 47 
3 471 143 58 
3 287 125 466 
3 500 58 313 
3 74 388 480 
3 62 272 158 
3 272 480 388 
3 412 486 454 
3 500 287 466 
3 484 28 161 
3 147 99 294 
3 205 68 2 
3 493 351 395 
3 132 96 151 
3 338 403 96 
3 400 407 89 
3 339 76 89 
3 198 73 337 
3 150 141 371 
3 141 150 386 
3 140 141 159 
3 316 133 296 
3 16 123 253 
3 481 222 184 
3 184 143 471 
3 236 272 279 
3 74 202 388 
3 54 492 246 
3 117 453 366 
3 173 107 201 
3 159 141 73 
3 133 7 112 
3 245 301 222 
3 184 301 143 
3 58 143 313 
3 258 500 313 
3 279 412 125 
3 388 279 272 
3 99 226 468 
3 161 28 385 
3 161 226 484 
3 99 484 226 
3 147 68 197 
3 205 2 467 
3 436 262 467 
3 17 493 498 
3 274 483 156 
3 151 118 21 
3 72 405 366 
3 151 21 132 
3 453 492 54 
3 453 10 492 
3 453 117 104 
3 190 407 492 
3 113 89 407 
3 173 390 389 
3 477 78 80 
3 73 477 278 
3 73 198 477 
3 337 73 141 
3 278 419 140 
3 16 7 316 
3 253 123 442 
3 258 313 257 
3 143 301 313 
3 4 413 212 
3 310 272 236 
3 48 131 310 
3 147 484 99 
3 4 480 62 
3 493 455 483 
3 156 441 57 
3 405 148 117 
3 156 148 405 
3 201 390 173 
3 246 407 400 
3 190 113 407 
3 461 410 113 
3 461 80 110 
3 80 78 110 
3 133 386 150 
3 133 112 386 
3 7 133 316 
3 123 16 251 
3 123 109 442 
3 245 109 182 
3 258 131 48 
3 30 139 367 
3 51 62 314 
3 62 51 4 
3 468 51 75 
3 446 99 468 
3 2 68 294 
3 436 467 2 
3 489 493 395 
3 36 395 262 
3 130 462 501 
3 274 156 405 
3 405 117 366 
3 140 419 242 
3 110 410 461 
3 159 73 278 
3 140 371 141 
3 320 251 16 
3 187 272 310 
3 158 187 474 
3 468 413 51 
3 455 501 441 
3 489 36 130 
3 465 427 298 
3 10 107 190 
3 113 190 173 
3 389 419 461 
3 389 113 173 
3 140 242 85 
3 159 278 140 
3 140 85 371 
3 103 251 320 
3 97 301 245 
3 30 131 258 
3 48 287 258 
3 305 131 367 
3 368 392 97 
3 187 256 478 
3 212 74 4 
3 468 75 446 
3 446 436 294 
3 479 106 315 
3 436 420 106 
3 455 493 489 
3 455 489 130 
3 501 462 465 
3 441 501 465 
3 465 298 57 
3 107 173 190 
3 101 85 242 
3 389 242 419 
3 296 133 150 
3 296 320 16 
3 224 368 182 
3 283 123 251 
3 392 31 97 
3 257 301 97 
3 367 131 30 
3 31 30 258 
3 313 301 257 
3 478 474 187 
3 310 131 305 
3 314 75 51 
3 294 99 446 
3 294 68 147 
3 36 106 275 
3 298 148 57 
3 242 389 390 
3 101 284 371 
3 371 85 101 
3 114 296 371 
3 253 7 16 
3 16 316 296 
3 392 368 224 
3 158 474 314 
3 474 478 79 
3 177 264 311 
3 187 310 256 
3 106 420 315 
3 130 275 189 
3 465 57 441 
3 104 117 148 
3 334 476 282 
3 107 10 213 
3 107 142 201 
3 250 168 155 
3 497 250 155 
3 447 250 55 
3 172 401 60 
3 257 97 31 
3 31 258 257 
3 182 317 224 
3 367 65 305 
3 106 262 436 
3 275 130 36 
3 312 303 345 
3 114 371 284 
3 155 296 114 
3 451 179 137 
3 55 250 497 
3 103 63 251 
3 283 182 123 
3 123 182 109 
3 445 139 392 
3 65 139 445 
3 314 404 116 
3 305 175 256 
3 256 310 305 
3 102 124 177 
3 314 116 75 
3 479 116 280 
3 189 462 130 
3 275 106 479 
3 345 462 189 
3 462 345 427 
3 462 427 465 
3 282 298 127 
3 168 290 348 
3 447 55 451 
3 225 290 496 
3 317 445 224 
3 175 478 256 
3 124 404 474 
3 280 116 404 
3 106 36 262 
3 427 127 298 
3 284 101 201 
3 242 390 101 
3 290 250 447 
3 335 103 320 
3 401 103 60 
3 283 251 63 
3 63 103 401 
3 63 435 317 
3 139 30 392 
3 124 474 79 
3 116 315 75 
3 420 436 446 
3 87 280 404 
3 474 404 314 
3 427 345 303 
3 304 127 303 
3 304 128 136 
3 487 213 334 
3 155 114 497 
3 179 451 55 
3 163 447 451 
3 296 168 320 
3 138 348 225 
3 320 168 348 
3 317 283 63 
3 49 65 37 
3 30 31 392 
3 49 425 247 
3 5 175 232 
3 176 352 259 
3 8 5 288 
3 359 457 144 
3 404 102 87 
3 345 129 312 
3 487 414 263 
3 107 213 142 
3 136 282 127 
3 172 193 61 
3 224 445 392 
3 247 67 49 
3 416 259 352 
3 232 416 352 
3 288 5 232 
3 5 8 177 
3 288 77 495 
3 102 311 228 
3 79 5 177 
3 115 137 322 
3 115 35 87 
3 479 280 459 
3 459 189 275 
3 322 336 35 
3 334 136 128 
3 334 282 136 
3 487 201 142 
3 179 263 414 
3 163 228 496 
3 228 311 71 
3 343 228 163 
3 447 163 496 
3 290 447 496 
3 426 401 153 
3 377 317 435 
3 37 370 425 
3 356 329 167 
3 37 377 370 
3 356 167 276 
3 247 259 67 
3 77 288 232 
3 177 124 79 
3 8 264 177 
3 71 448 496 
3 479 315 116 
3 87 285 280 
3 35 285 87 
3 345 189 459 
3 312 129 35 
3 487 263 284 
3 487 334 128 
3 372 179 414 
3 284 201 487 
3 322 372 304 
3 225 348 290 
3 61 138 33 
3 193 348 138 
3 185 411 33 
3 349 172 227 
3 317 182 283 
3 49 67 65 
3 232 352 77 
3 175 305 65 
3 232 175 416 
3 495 77 176 
3 8 144 264 
3 459 285 129 
3 328 102 228 
3 163 115 343 
3 71 311 264 
3 322 137 372 
3 336 303 312 
3 312 35 336 
3 304 303 336 
3 304 336 322 
3 372 414 304 
3 348 335 320 
3 163 451 115 
3 290 168 250 
3 63 401 426 
3 259 416 67 
3 37 65 445 
3 37 445 317 
3 67 416 65 
3 29 438 432 
3 496 228 71 
3 235 33 225 
3 61 193 138 
3 33 138 225 
3 227 172 61 
3 153 121 426 
3 425 370 356 
3 44 426 121 
3 44 435 63 
3 495 29 288 
3 381 396 495 
3 176 381 495 
3 381 176 221 
3 357 346 364 
3 235 448 98 
3 24 98 344 
3 71 264 344 
3 102 328 87 
3 343 87 328 
3 496 235 225 
3 411 61 33 
3 172 349 153 
3 349 227 306 
3 153 401 172 
3 370 377 435 
3 37 317 377 
3 356 276 425 
3 425 49 37 
3 352 176 77 
3 359 8 29 
3 359 29 432 
3 387 415 144 
3 121 349 329 
3 356 370 435 
3 425 276 277 
3 307 361 176 
3 342 495 396 
3 265 135 82 
3 71 98 448 
3 344 264 144 
3 98 24 369 
3 408 235 98 
3 119 490 306 
3 227 61 411 
3 356 435 44 
3 329 356 44 
3 176 259 307 
3 438 29 342 
3 144 8 359 
3 237 457 359 
3 119 411 185 
3 329 349 306 
3 299 490 308 
3 255 378 111 
3 496 448 235 
3 306 167 329 
3 191 361 1 
3 56 293 220 
3 425 277 247 
3 361 191 122 
3 1 307 277 
3 135 357 355 
3 3 378 255 
3 261 433 166 
3 174 360 6 
3 6 12 350 
3 399 473 428 
3 350 91 408 
3 318 408 91 
3 33 318 374 
3 119 306 227 
3 490 119 374 
3 220 1 277 
3 12 237 0 
3 122 12 0 
3 82 111 265 
3 27 261 378 
3 429 415 95 
3 237 346 381 
3 391 59 23 
3 379 430 64 
3 185 374 119 
3 11 56 167 
3 220 276 56 
3 357 475 355 
3 1 220 191 
3 361 307 1 
3 355 82 135 
3 396 381 346 
3 166 432 111 
3 178 387 174 
3 91 350 308 
3 186 240 364 
3 59 391 399 
3 344 144 24 
3 56 11 299 
3 299 293 56 
3 11 306 490 
3 11 490 299 
3 191 293 122 
3 350 12 50 
3 475 32 355 
3 111 378 261 
3 111 261 166 
3 166 433 240 
3 95 415 387 
3 6 350 408 
3 391 95 399 
3 408 318 235 
3 308 490 374 
3 98 170 408 
3 277 276 220 
3 475 357 364 
3 230 255 355 
3 3 255 238 
3 238 165 100 
3 433 209 240 
3 473 387 178 
3 162 23 59 
3 122 270 50 
3 318 91 374 
3 170 6 408 
3 23 379 429 
3 323 269 170 
3 369 379 323 
3 350 50 308 
3 270 308 50 
3 299 308 270 
3 185 33 374 
3 230 32 84 
3 286 230 84 
3 255 111 82 
3 255 82 355 
3 230 355 32 
3 84 475 209 
3 286 84 22 
3 84 433 22 
3 59 397 162 
3 23 86 379 
3 122 293 270 
3 270 293 299 
3 108 27 378 
3 428 231 204 
3 397 434 382 
3 269 174 170 
3 170 369 323 
3 23 162 393 
3 23 393 86 
3 238 108 3 
3 230 165 238 
3 238 255 230 
3 269 52 178 
3 428 204 59 
3 24 415 429 
3 52 323 64 
3 238 100 108 
3 165 27 100 
3 428 59 399 
3 323 52 269 
3 375 211 162 
3 64 430 204 
3 165 433 27 
3 231 428 52 
3 165 230 286 
3 393 430 86 
3 397 375 162 
3 64 231 52 
3 204 434 321 
3 134 382 434 
3 430 379 86 
3 134 375 382 
3 393 375 134 
3 321 59 204 
3 415 24 144 
3 237 381 0 
3 12 122 50 
3 429 391 23 
3 364 237 186 
3 148 298 476 
3 407 246 492 
3 218 406 383 
3 402 218 383 
3 195 289 295 
3 19 398 183 
3 19 42 398 
3 363 409 354 
3 483 455 441 
3 54 366 453 
3 53 249 21 
3 72 494 274 
3 366 54 38 
3 494 483 274 
3 72 366 38 
3 36 489 395 
3 501 455 130 
3 148 476 104 
3 282 476 298 
3 478 5 79 
3 213 476 334 
3 263 497 114 
3 322 35 115 
3 193 60 335 
3 265 432 438 
3 29 495 342 
3 344 98 71 
3 167 56 276 
3 3 108 378 
3 166 186 432 
3 265 111 432 
3 166 240 186 
3 457 12 6 
3 237 359 186 
3 411 119 227 
3 360 174 387 
3 428 473 178 
3 387 473 95 
3 209 364 240 
3 346 237 364 
3 221 122 0 
3 237 12 457 
3 32 475 84 
3 428 178 52 
3 174 6 170 
3 204 231 64 
3 261 27 433 
3 321 434 397 
3 397 382 375 
3 211 393 162 
3 430 393 134 
3 430 134 434 
3 321 397 59 
3 64 323 379 
3 473 399 95 
3 430 434 204 
3 83 20 229 
3 340 324 157 
3 206 440 18 
3 234 219 295 
3 327 431 199 
3 39 482 164 
3 468 226 413 
3 241 437 418 
3 233 241 248 
3 249 53 394 
3 60 103 335 
3 146 380 20 
3 380 229 20 
3 289 195 423 
3 183 398 126 
3 233 248 424 
3 309 206 499 
3 216 88 157 
3 146 383 45 
3 440 268 254 
3 244 194 266 
3 209 433 84 
3 433 165 22 
3 211 375 393 
3 194 244 183 
3 254 18 440 
3 157 207 340 
3 302 341 463 
3 218 289 406 
3 66 203 145 
3 319 443 365 
3 289 66 406 
3 26 200 183 
3 83 376 324 
3 380 9 229 
3 289 203 66 
3 183 200 19 
3 145 229 9 
3 443 145 81 
3 26 243 449 
3 302 319 365 
3 180 40 332 
3 456 180 43 
3 464 92 302 
3 341 302 365 
3 216 460 34 
3 66 9 406 
3 443 81 223 
3 437 241 81 
3 423 42 203 
3 365 223 233 
3 223 81 233 
3 26 183 244 
3 302 92 443 
3 376 229 145 
3 300 243 26 
3 145 440 34 
3 210 268 440 
3 210 145 40 
3 83 229 376 
3 443 92 145 
3 460 216 324 
3 145 203 200 
3 332 43 180 
3 43 332 92 
3 145 449 81 
3 92 332 145 
3 45 406 9 
3 200 203 42 
3 449 200 26 
3 43 92 464 
3 145 210 440 
3 145 34 460 
3 380 45 9 
3 223 365 443 
3 449 145 200 
3 324 145 460 
3 26 244 300 
3 437 81 449 
3 423 203 289 
3 210 40 268 
3 145 9 66 
3 145 332 40 
3 319 302 443 
3 437 449 243 
3 81 241 233 
3 376 145 324 
3 200 42 19 
